%TF.GenerationSoftware,KiCad,Pcbnew,(6.0.11-0)*%
%TF.CreationDate,2023-02-17T15:47:51-08:00*%
%TF.ProjectId,lab4 exercise 2,6c616234-2065-4786-9572-636973652032,rev?*%
%TF.SameCoordinates,Original*%
%TF.FileFunction,Copper,L1,Top*%
%TF.FilePolarity,Positive*%
%FSLAX46Y46*%
G04 Gerber Fmt 4.6, Leading zero omitted, Abs format (unit mm)*
G04 Created by KiCad (PCBNEW (6.0.11-0)) date 2023-02-17 15:47:51*
%MOMM*%
%LPD*%
G01*
G04 APERTURE LIST*
G04 Aperture macros list*
%AMRoundRect*
0 Rectangle with rounded corners*
0 $1 Rounding radius*
0 $2 $3 $4 $5 $6 $7 $8 $9 X,Y pos of 4 corners*
0 Add a 4 corners polygon primitive as box body*
4,1,4,$2,$3,$4,$5,$6,$7,$8,$9,$2,$3,0*
0 Add four circle primitives for the rounded corners*
1,1,$1+$1,$2,$3*
1,1,$1+$1,$4,$5*
1,1,$1+$1,$6,$7*
1,1,$1+$1,$8,$9*
0 Add four rect primitives between the rounded corners*
20,1,$1+$1,$2,$3,$4,$5,0*
20,1,$1+$1,$4,$5,$6,$7,0*
20,1,$1+$1,$6,$7,$8,$9,0*
20,1,$1+$1,$8,$9,$2,$3,0*%
G04 Aperture macros list end*
%TA.AperFunction,SMDPad,CuDef*%
%ADD10RoundRect,0.250000X-0.450000X0.350000X-0.450000X-0.350000X0.450000X-0.350000X0.450000X0.350000X0*%
%TD*%
%TA.AperFunction,SMDPad,CuDef*%
%ADD11RoundRect,0.250001X0.624999X-0.462499X0.624999X0.462499X-0.624999X0.462499X-0.624999X-0.462499X0*%
%TD*%
%TA.AperFunction,SMDPad,CuDef*%
%ADD12RoundRect,0.150000X-0.150000X0.825000X-0.150000X-0.825000X0.150000X-0.825000X0.150000X0.825000X0*%
%TD*%
%TA.AperFunction,SMDPad,CuDef*%
%ADD13R,3.000000X2.290000*%
%TD*%
%TA.AperFunction,ComponentPad*%
%ADD14R,3.000000X3.000000*%
%TD*%
%TA.AperFunction,ComponentPad*%
%ADD15C,3.000000*%
%TD*%
%TA.AperFunction,SMDPad,CuDef*%
%ADD16RoundRect,0.250000X0.475000X-0.337500X0.475000X0.337500X-0.475000X0.337500X-0.475000X-0.337500X0*%
%TD*%
%TA.AperFunction,SMDPad,CuDef*%
%ADD17RoundRect,0.250000X-0.425000X0.537500X-0.425000X-0.537500X0.425000X-0.537500X0.425000X0.537500X0*%
%TD*%
%TA.AperFunction,ViaPad*%
%ADD18C,0.800000*%
%TD*%
%TA.AperFunction,Conductor*%
%ADD19C,0.250000*%
%TD*%
%TA.AperFunction,Conductor*%
%ADD20C,0.508000*%
%TD*%
G04 APERTURE END LIST*
D10*
%TO.P,R3,1*%
%TO.N,Net-(D1-Pad1)*%
X151337500Y-85770000D03*
%TO.P,R3,2*%
%TO.N,/pin_3*%
X151337500Y-87770000D03*
%TD*%
%TO.P,R4,1*%
%TO.N,/pin_3*%
X151382500Y-92304128D03*
%TO.P,R4,2*%
%TO.N,Net-(D2-Pad2)*%
X151382500Y-94304128D03*
%TD*%
%TO.P,R2,1*%
%TO.N,/pin_7*%
X132702500Y-84409448D03*
%TO.P,R2,2*%
%TO.N,/pin_2*%
X132702500Y-86409448D03*
%TD*%
D11*
%TO.P,D1,1,K*%
%TO.N,Net-(D1-Pad1)*%
X151622500Y-81095000D03*
%TO.P,D1,2,A*%
%TO.N,+9V*%
X151622500Y-78120000D03*
%TD*%
D12*
%TO.P,U1,1,GND*%
%TO.N,GND*%
X144280000Y-91505000D03*
%TO.P,U1,2,TR*%
%TO.N,/pin_2*%
X143010000Y-91505000D03*
%TO.P,U1,3,Q*%
%TO.N,/pin_3*%
X141740000Y-91505000D03*
%TO.P,U1,4,R*%
%TO.N,+9V*%
X140470000Y-91505000D03*
%TO.P,U1,5,CV*%
%TO.N,Net-(C2-Pad1)*%
X140470000Y-96455000D03*
%TO.P,U1,6,THR*%
%TO.N,/pin_2*%
X141740000Y-96455000D03*
%TO.P,U1,7,DIS*%
%TO.N,/pin_7*%
X143010000Y-96455000D03*
%TO.P,U1,8,VCC*%
%TO.N,+9V*%
X144280000Y-96455000D03*
D13*
%TO.P,U1,9*%
%TO.N,N/C*%
X142375000Y-93980000D03*
%TD*%
D14*
%TO.P,J1,1,Pin_1*%
%TO.N,+9V*%
X139977500Y-81280000D03*
D15*
%TO.P,J1,2,Pin_2*%
%TO.N,GND*%
X145057500Y-81280000D03*
%TD*%
D11*
%TO.P,D2,1,K*%
%TO.N,GND*%
X151157500Y-100357500D03*
%TO.P,D2,2,A*%
%TO.N,Net-(D2-Pad2)*%
X151157500Y-97382500D03*
%TD*%
D16*
%TO.P,C2,1*%
%TO.N,Net-(C2-Pad1)*%
X132902500Y-100720000D03*
%TO.P,C2,2*%
%TO.N,GND*%
X132902500Y-98645000D03*
%TD*%
D10*
%TO.P,R1,1*%
%TO.N,+9V*%
X132702500Y-77562384D03*
%TO.P,R1,2*%
%TO.N,/pin_7*%
X132702500Y-79562384D03*
%TD*%
D17*
%TO.P,C1,1*%
%TO.N,/pin_2*%
X132702500Y-91591948D03*
%TO.P,C1,2*%
%TO.N,GND*%
X132702500Y-94466948D03*
%TD*%
D18*
%TO.N,/pin_2*%
X139897500Y-99060000D03*
X137357500Y-91440000D03*
%TO.N,+9V*%
X144977500Y-99060000D03*
X139897500Y-88900000D03*
%TO.N,/pin_7*%
X134817500Y-83820000D03*
X142437500Y-99060000D03*
%TO.N,/pin_3*%
X147517500Y-88900000D03*
X142437500Y-88900000D03*
%TD*%
D19*
%TO.N,/pin_2*%
X143162500Y-91352500D02*
X143162500Y-88599695D01*
X141740000Y-98362500D02*
X141042500Y-99060000D01*
X141740000Y-96455000D02*
X141740000Y-98362500D01*
X143010000Y-91505000D02*
X143162500Y-91352500D01*
X132702500Y-91591948D02*
X137205552Y-91591948D01*
X140972253Y-86409448D02*
X132702500Y-86409448D01*
X143162500Y-88599695D02*
X140972253Y-86409448D01*
X132702500Y-86409448D02*
X132702500Y-91591948D01*
X141042500Y-99060000D02*
X139897500Y-99060000D01*
X137205552Y-91591948D02*
X137357500Y-91440000D01*
%TO.N,GND*%
X132702500Y-94466948D02*
X132902500Y-94666948D01*
%TO.N,Net-(C2-Pad1)*%
X136205000Y-100720000D02*
X140470000Y-96455000D01*
X132902500Y-100720000D02*
X136205000Y-100720000D01*
%TO.N,Net-(D1-Pad1)*%
X151337500Y-85770000D02*
X151622500Y-85485000D01*
X151622500Y-85485000D02*
X151622500Y-81095000D01*
D20*
%TO.N,+9V*%
X144280000Y-96455000D02*
X144977500Y-97152500D01*
X132702500Y-77562384D02*
X136420116Y-81280000D01*
X136420116Y-81280000D02*
X139977500Y-81280000D01*
X139897500Y-90932500D02*
X139897500Y-88900000D01*
X144977500Y-97152500D02*
X144977500Y-99060000D01*
X139977500Y-81280000D02*
X143137500Y-78120000D01*
X143137500Y-78120000D02*
X151622500Y-78120000D01*
X140470000Y-91505000D02*
X139897500Y-90932500D01*
D19*
%TO.N,Net-(D2-Pad2)*%
X151157500Y-94529128D02*
X151157500Y-97382500D01*
X151382500Y-94304128D02*
X151157500Y-94529128D01*
%TO.N,/pin_7*%
X134817500Y-83820000D02*
X133291948Y-83820000D01*
X132702500Y-79562384D02*
X132702500Y-84409448D01*
X143010000Y-96455000D02*
X142437500Y-97027500D01*
X133291948Y-83820000D02*
X132702500Y-84409448D01*
X142437500Y-97027500D02*
X142437500Y-99060000D01*
%TO.N,/pin_3*%
X141740000Y-89597500D02*
X142437500Y-88900000D01*
X151382500Y-92304128D02*
X151337500Y-92259128D01*
X151382500Y-92304128D02*
X147978372Y-88900000D01*
X147978372Y-88900000D02*
X147517500Y-88900000D01*
X141740000Y-91505000D02*
X141740000Y-89597500D01*
X151337500Y-92259128D02*
X151337500Y-87770000D01*
%TD*%
%TA.AperFunction,Conductor*%
%TO.N,GND*%
G36*
X131516131Y-76728502D02*
G01*
X131562624Y-76782158D01*
X131572728Y-76852432D01*
X131562814Y-76885705D01*
X131560385Y-76889646D01*
X131558079Y-76896597D01*
X131558079Y-76896598D01*
X131535264Y-76965385D01*
X131504703Y-77057523D01*
X131494000Y-77161984D01*
X131494000Y-77962784D01*
X131504974Y-78068550D01*
X131560950Y-78236330D01*
X131654022Y-78386732D01*
X131659204Y-78391905D01*
X131740609Y-78473168D01*
X131774688Y-78535450D01*
X131769685Y-78606270D01*
X131740764Y-78651359D01*
X131653195Y-78739081D01*
X131560385Y-78889646D01*
X131542955Y-78942197D01*
X131506993Y-79050620D01*
X131504703Y-79057523D01*
X131494000Y-79161984D01*
X131494000Y-79962784D01*
X131494337Y-79966030D01*
X131494337Y-79966034D01*
X131503676Y-80056037D01*
X131504974Y-80068550D01*
X131507155Y-80075086D01*
X131507155Y-80075088D01*
X131537295Y-80165428D01*
X131560950Y-80236330D01*
X131654022Y-80386732D01*
X131779197Y-80511689D01*
X131785427Y-80515529D01*
X131785428Y-80515530D01*
X131898723Y-80585366D01*
X131929762Y-80604499D01*
X131982668Y-80622047D01*
X132041027Y-80662478D01*
X132068264Y-80728042D01*
X132069000Y-80741640D01*
X132069000Y-83230251D01*
X132048998Y-83298372D01*
X131995342Y-83344865D01*
X131982877Y-83349774D01*
X131935498Y-83365581D01*
X131935496Y-83365582D01*
X131928554Y-83367898D01*
X131778152Y-83460970D01*
X131653195Y-83586145D01*
X131560385Y-83736710D01*
X131504703Y-83904587D01*
X131494000Y-84009048D01*
X131494000Y-84809848D01*
X131504974Y-84915614D01*
X131507155Y-84922150D01*
X131507155Y-84922152D01*
X131513616Y-84941517D01*
X131560950Y-85083394D01*
X131654022Y-85233796D01*
X131659204Y-85238969D01*
X131740609Y-85320232D01*
X131774688Y-85382514D01*
X131769685Y-85453334D01*
X131740764Y-85498423D01*
X131665440Y-85573879D01*
X131653195Y-85586145D01*
X131560385Y-85736710D01*
X131504703Y-85904587D01*
X131494000Y-86009048D01*
X131494000Y-86809848D01*
X131504974Y-86915614D01*
X131507155Y-86922150D01*
X131507155Y-86922152D01*
X131513616Y-86941517D01*
X131560950Y-87083394D01*
X131654022Y-87233796D01*
X131779197Y-87358753D01*
X131785427Y-87362593D01*
X131785428Y-87362594D01*
X131791522Y-87366350D01*
X131929762Y-87451563D01*
X131982668Y-87469111D01*
X132041027Y-87509542D01*
X132068264Y-87575106D01*
X132069000Y-87588704D01*
X132069000Y-90233591D01*
X132048998Y-90301712D01*
X131995342Y-90348205D01*
X131982878Y-90353114D01*
X131960505Y-90360578D01*
X131960498Y-90360581D01*
X131953554Y-90362898D01*
X131803152Y-90455970D01*
X131678195Y-90581145D01*
X131585385Y-90731710D01*
X131529703Y-90899587D01*
X131529003Y-90906423D01*
X131529002Y-90906426D01*
X131524591Y-90949479D01*
X131519000Y-91004048D01*
X131519000Y-92179848D01*
X131519337Y-92183094D01*
X131519337Y-92183098D01*
X131526634Y-92253421D01*
X131529974Y-92285614D01*
X131532155Y-92292150D01*
X131532155Y-92292152D01*
X131566969Y-92396502D01*
X131585950Y-92453394D01*
X131679022Y-92603796D01*
X131804197Y-92728753D01*
X131810427Y-92732593D01*
X131810428Y-92732594D01*
X131947590Y-92817142D01*
X131954762Y-92821563D01*
X132034505Y-92848012D01*
X132116111Y-92875080D01*
X132116113Y-92875080D01*
X132122639Y-92877245D01*
X132129475Y-92877945D01*
X132129478Y-92877946D01*
X132172531Y-92882357D01*
X132227100Y-92887948D01*
X133177900Y-92887948D01*
X133181146Y-92887611D01*
X133181150Y-92887611D01*
X133276808Y-92877686D01*
X133276812Y-92877685D01*
X133283666Y-92876974D01*
X133290202Y-92874793D01*
X133290204Y-92874793D01*
X133422306Y-92830720D01*
X133451446Y-92820998D01*
X133601848Y-92727926D01*
X133726805Y-92602751D01*
X133737260Y-92585790D01*
X133815775Y-92458416D01*
X133815776Y-92458414D01*
X133819615Y-92452186D01*
X133866185Y-92311781D01*
X133906615Y-92253421D01*
X133972180Y-92226184D01*
X133985778Y-92225448D01*
X136861230Y-92225448D01*
X136912479Y-92236341D01*
X137023149Y-92285614D01*
X137075212Y-92308794D01*
X137158512Y-92326500D01*
X137255556Y-92347128D01*
X137255561Y-92347128D01*
X137262013Y-92348500D01*
X137452987Y-92348500D01*
X137459439Y-92347128D01*
X137459444Y-92347128D01*
X137556488Y-92326500D01*
X137639788Y-92308794D01*
X137677167Y-92292152D01*
X137808222Y-92233803D01*
X137808224Y-92233802D01*
X137814252Y-92231118D01*
X137968753Y-92118866D01*
X138036412Y-92043723D01*
X138092121Y-91981852D01*
X138092122Y-91981851D01*
X138096540Y-91976944D01*
X138192027Y-91811556D01*
X138251042Y-91629928D01*
X138271004Y-91440000D01*
X138254436Y-91282365D01*
X138251732Y-91256635D01*
X138251732Y-91256633D01*
X138251042Y-91250072D01*
X138192027Y-91068444D01*
X138096540Y-90903056D01*
X137968753Y-90761134D01*
X137814252Y-90648882D01*
X137808224Y-90646198D01*
X137808222Y-90646197D01*
X137645819Y-90573891D01*
X137645818Y-90573891D01*
X137639788Y-90571206D01*
X137541208Y-90550252D01*
X137459444Y-90532872D01*
X137459439Y-90532872D01*
X137452987Y-90531500D01*
X137262013Y-90531500D01*
X137255561Y-90532872D01*
X137255556Y-90532872D01*
X137173792Y-90550252D01*
X137075212Y-90571206D01*
X137069182Y-90573891D01*
X137069181Y-90573891D01*
X136906778Y-90646197D01*
X136906776Y-90646198D01*
X136900748Y-90648882D01*
X136746247Y-90761134D01*
X136618460Y-90903056D01*
X136616194Y-90906981D01*
X136560577Y-90949865D01*
X136514868Y-90958448D01*
X133985890Y-90958448D01*
X133917769Y-90938446D01*
X133871276Y-90884790D01*
X133866367Y-90872325D01*
X133821370Y-90737455D01*
X133821369Y-90737453D01*
X133819050Y-90730502D01*
X133725978Y-90580100D01*
X133717069Y-90571206D01*
X133605983Y-90460314D01*
X133600803Y-90455143D01*
X133550621Y-90424210D01*
X133456468Y-90366173D01*
X133456466Y-90366172D01*
X133450238Y-90362333D01*
X133422330Y-90353076D01*
X133363972Y-90312645D01*
X133336736Y-90247081D01*
X133336000Y-90233484D01*
X133336000Y-87588645D01*
X133356002Y-87520524D01*
X133409658Y-87474031D01*
X133422123Y-87469122D01*
X133469502Y-87453315D01*
X133469504Y-87453314D01*
X133476446Y-87450998D01*
X133626848Y-87357926D01*
X133751805Y-87232751D01*
X133831889Y-87102832D01*
X133884662Y-87055338D01*
X133939149Y-87042948D01*
X140657659Y-87042948D01*
X140725780Y-87062950D01*
X140746754Y-87079853D01*
X141770974Y-88104073D01*
X141805000Y-88166385D01*
X141799935Y-88237200D01*
X141775517Y-88277475D01*
X141698460Y-88363056D01*
X141602973Y-88528444D01*
X141543958Y-88710072D01*
X141543268Y-88716633D01*
X141543268Y-88716635D01*
X141526593Y-88875292D01*
X141499580Y-88940949D01*
X141490378Y-88951218D01*
X141347742Y-89093853D01*
X141339463Y-89101387D01*
X141332982Y-89105500D01*
X141286357Y-89155151D01*
X141283602Y-89157993D01*
X141263865Y-89177730D01*
X141261385Y-89180927D01*
X141253682Y-89189947D01*
X141223414Y-89222179D01*
X141219595Y-89229125D01*
X141219593Y-89229128D01*
X141213652Y-89239934D01*
X141202801Y-89256453D01*
X141190386Y-89272459D01*
X141187241Y-89279728D01*
X141187238Y-89279732D01*
X141172826Y-89313037D01*
X141167609Y-89323687D01*
X141146305Y-89362440D01*
X141144334Y-89370115D01*
X141144334Y-89370116D01*
X141141267Y-89382062D01*
X141134863Y-89400766D01*
X141126819Y-89419355D01*
X141125580Y-89427178D01*
X141125577Y-89427188D01*
X141119901Y-89463024D01*
X141117495Y-89474644D01*
X141106500Y-89517470D01*
X141106500Y-89537724D01*
X141104949Y-89557434D01*
X141101780Y-89577443D01*
X141102526Y-89585335D01*
X141105941Y-89621461D01*
X141106500Y-89633319D01*
X141106500Y-89981776D01*
X141086498Y-90049897D01*
X141032842Y-90096390D01*
X140962568Y-90106494D01*
X140916364Y-90090231D01*
X140883601Y-90070855D01*
X140875991Y-90068644D01*
X140875986Y-90068642D01*
X140750848Y-90032287D01*
X140691012Y-89994074D01*
X140661334Y-89929578D01*
X140660000Y-89911290D01*
X140660000Y-89430071D01*
X140676881Y-89367071D01*
X140728723Y-89277279D01*
X140728724Y-89277278D01*
X140732027Y-89271556D01*
X140791042Y-89089928D01*
X140811004Y-88900000D01*
X140806621Y-88858298D01*
X140791732Y-88716635D01*
X140791732Y-88716633D01*
X140791042Y-88710072D01*
X140732027Y-88528444D01*
X140636540Y-88363056D01*
X140622298Y-88347238D01*
X140513175Y-88226045D01*
X140513174Y-88226044D01*
X140508753Y-88221134D01*
X140354252Y-88108882D01*
X140348224Y-88106198D01*
X140348222Y-88106197D01*
X140185819Y-88033891D01*
X140185818Y-88033891D01*
X140179788Y-88031206D01*
X140086387Y-88011353D01*
X139999444Y-87992872D01*
X139999439Y-87992872D01*
X139992987Y-87991500D01*
X139802013Y-87991500D01*
X139795561Y-87992872D01*
X139795556Y-87992872D01*
X139708612Y-88011353D01*
X139615212Y-88031206D01*
X139609182Y-88033891D01*
X139609181Y-88033891D01*
X139446778Y-88106197D01*
X139446776Y-88106198D01*
X139440748Y-88108882D01*
X139286247Y-88221134D01*
X139281826Y-88226044D01*
X139281825Y-88226045D01*
X139172703Y-88347238D01*
X139158460Y-88363056D01*
X139062973Y-88528444D01*
X139003958Y-88710072D01*
X139003268Y-88716633D01*
X139003268Y-88716635D01*
X138988379Y-88858298D01*
X138983996Y-88900000D01*
X139003958Y-89089928D01*
X139062973Y-89271556D01*
X139066276Y-89277278D01*
X139066277Y-89277279D01*
X139118119Y-89367071D01*
X139135000Y-89430071D01*
X139135000Y-90865124D01*
X139133567Y-90884074D01*
X139131376Y-90898473D01*
X139131376Y-90898479D01*
X139130276Y-90905708D01*
X139130869Y-90913000D01*
X139130869Y-90913003D01*
X139134585Y-90958683D01*
X139135000Y-90968898D01*
X139135000Y-90977025D01*
X139138311Y-91005424D01*
X139138738Y-91009744D01*
X139144691Y-91082926D01*
X139146947Y-91089888D01*
X139148143Y-91095876D01*
X139149551Y-91101833D01*
X139150399Y-91109107D01*
X139152897Y-91115989D01*
X139152898Y-91115993D01*
X139175445Y-91178107D01*
X139176855Y-91182211D01*
X139199487Y-91252075D01*
X139203287Y-91258338D01*
X139205825Y-91263880D01*
X139208567Y-91269356D01*
X139211066Y-91276241D01*
X139215081Y-91282365D01*
X139251315Y-91337632D01*
X139253630Y-91341300D01*
X139291727Y-91404081D01*
X139295441Y-91408286D01*
X139295443Y-91408289D01*
X139299167Y-91412505D01*
X139299138Y-91412531D01*
X139301738Y-91415462D01*
X139304542Y-91418816D01*
X139308554Y-91424935D01*
X139313866Y-91429967D01*
X139365086Y-91478488D01*
X139367528Y-91480866D01*
X139624595Y-91737933D01*
X139658621Y-91800245D01*
X139661500Y-91827028D01*
X139661500Y-92396502D01*
X139661693Y-92398950D01*
X139661693Y-92398958D01*
X139663927Y-92427333D01*
X139664438Y-92433831D01*
X139675451Y-92471739D01*
X139708586Y-92585790D01*
X139710855Y-92593601D01*
X139714892Y-92600427D01*
X139791509Y-92729980D01*
X139791511Y-92729983D01*
X139795547Y-92736807D01*
X139913193Y-92854453D01*
X139920017Y-92858489D01*
X139920020Y-92858491D01*
X140027589Y-92922107D01*
X140056399Y-92939145D01*
X140064010Y-92941356D01*
X140064012Y-92941357D01*
X140116231Y-92956528D01*
X140216169Y-92985562D01*
X140222574Y-92986066D01*
X140222579Y-92986067D01*
X140247029Y-92987991D01*
X140250386Y-92988255D01*
X140316727Y-93013541D01*
X140358867Y-93070679D01*
X140366500Y-93113867D01*
X140366500Y-94846133D01*
X140346498Y-94914254D01*
X140292842Y-94960747D01*
X140250386Y-94971745D01*
X140247029Y-94972009D01*
X140222579Y-94973933D01*
X140222574Y-94973934D01*
X140216169Y-94974438D01*
X140116231Y-95003472D01*
X140064012Y-95018643D01*
X140064010Y-95018644D01*
X140056399Y-95020855D01*
X140049572Y-95024892D01*
X140049573Y-95024892D01*
X139920020Y-95101509D01*
X139920017Y-95101511D01*
X139913193Y-95105547D01*
X139795547Y-95223193D01*
X139791511Y-95230017D01*
X139791509Y-95230020D01*
X139744662Y-95309235D01*
X139710855Y-95366399D01*
X139708644Y-95374010D01*
X139708643Y-95374012D01*
X139700406Y-95402366D01*
X139664438Y-95526169D01*
X139663934Y-95532574D01*
X139663933Y-95532579D01*
X139661693Y-95561042D01*
X139661500Y-95563498D01*
X139661500Y-96315406D01*
X139641498Y-96383527D01*
X139624595Y-96404501D01*
X135979500Y-100049595D01*
X135917188Y-100083621D01*
X135890405Y-100086500D01*
X134156546Y-100086500D01*
X134088425Y-100066498D01*
X134049402Y-100026803D01*
X133979832Y-99914380D01*
X133975978Y-99908152D01*
X133918845Y-99851118D01*
X133855986Y-99788369D01*
X133850803Y-99783195D01*
X133846265Y-99780398D01*
X133805676Y-99723147D01*
X133802446Y-99652224D01*
X133838072Y-99590813D01*
X133846568Y-99583438D01*
X133856707Y-99575402D01*
X133971239Y-99460671D01*
X133980251Y-99449260D01*
X134065316Y-99311257D01*
X134071463Y-99298076D01*
X134122638Y-99143790D01*
X134125505Y-99130414D01*
X134135172Y-99036062D01*
X134135500Y-99029646D01*
X134135500Y-98917115D01*
X134131025Y-98901876D01*
X134129635Y-98900671D01*
X134121952Y-98899000D01*
X131687616Y-98899000D01*
X131672377Y-98903475D01*
X131671172Y-98904865D01*
X131669501Y-98912548D01*
X131669501Y-99029595D01*
X131669838Y-99036114D01*
X131679757Y-99131706D01*
X131682649Y-99145100D01*
X131734088Y-99299284D01*
X131740261Y-99312462D01*
X131825563Y-99450307D01*
X131834599Y-99461708D01*
X131949328Y-99576238D01*
X131958262Y-99583294D01*
X131999323Y-99641212D01*
X132002553Y-99712135D01*
X131966926Y-99773546D01*
X131959093Y-99780346D01*
X131953152Y-99784022D01*
X131828195Y-99909197D01*
X131824355Y-99915427D01*
X131824354Y-99915428D01*
X131792486Y-99967128D01*
X131735385Y-100059762D01*
X131679703Y-100227639D01*
X131669000Y-100332100D01*
X131669000Y-101107900D01*
X131669337Y-101111146D01*
X131669337Y-101111150D01*
X131678889Y-101203207D01*
X131679974Y-101213666D01*
X131682155Y-101220202D01*
X131682155Y-101220204D01*
X131721613Y-101338474D01*
X131735950Y-101381446D01*
X131829022Y-101531848D01*
X131954197Y-101656805D01*
X131960427Y-101660645D01*
X131960428Y-101660646D01*
X132097590Y-101745194D01*
X132104762Y-101749615D01*
X132184505Y-101776064D01*
X132266111Y-101803132D01*
X132266113Y-101803132D01*
X132272639Y-101805297D01*
X132279475Y-101805997D01*
X132279478Y-101805998D01*
X132322531Y-101810409D01*
X132377100Y-101816000D01*
X133427900Y-101816000D01*
X133431146Y-101815663D01*
X133431150Y-101815663D01*
X133526808Y-101805738D01*
X133526812Y-101805737D01*
X133533666Y-101805026D01*
X133540202Y-101802845D01*
X133540204Y-101802845D01*
X133672306Y-101758772D01*
X133701446Y-101749050D01*
X133851848Y-101655978D01*
X133976805Y-101530803D01*
X134049184Y-101413383D01*
X134101955Y-101365891D01*
X134156443Y-101353500D01*
X136126233Y-101353500D01*
X136137416Y-101354027D01*
X136144909Y-101355702D01*
X136152835Y-101355453D01*
X136152836Y-101355453D01*
X136212986Y-101353562D01*
X136216945Y-101353500D01*
X136244856Y-101353500D01*
X136248791Y-101353003D01*
X136248856Y-101352995D01*
X136260693Y-101352062D01*
X136292951Y-101351048D01*
X136296970Y-101350922D01*
X136304889Y-101350673D01*
X136324343Y-101345021D01*
X136343700Y-101341013D01*
X136355930Y-101339468D01*
X136355931Y-101339468D01*
X136363797Y-101338474D01*
X136371168Y-101335555D01*
X136371170Y-101335555D01*
X136404912Y-101322196D01*
X136416142Y-101318351D01*
X136450983Y-101308229D01*
X136450984Y-101308229D01*
X136458593Y-101306018D01*
X136465412Y-101301985D01*
X136465417Y-101301983D01*
X136476028Y-101295707D01*
X136493776Y-101287012D01*
X136512617Y-101279552D01*
X136548387Y-101253564D01*
X136558307Y-101247048D01*
X136589535Y-101228580D01*
X136589538Y-101228578D01*
X136596362Y-101224542D01*
X136610683Y-101210221D01*
X136625717Y-101197380D01*
X136635694Y-101190131D01*
X136642107Y-101185472D01*
X136670298Y-101151395D01*
X136678288Y-101142616D01*
X136953808Y-100867096D01*
X149774500Y-100867096D01*
X149774837Y-100873611D01*
X149784756Y-100969203D01*
X149787650Y-100982602D01*
X149839088Y-101136783D01*
X149845262Y-101149962D01*
X149930563Y-101287807D01*
X149939599Y-101299208D01*
X150054330Y-101413739D01*
X150065741Y-101422751D01*
X150203745Y-101507818D01*
X150216923Y-101513962D01*
X150371216Y-101565139D01*
X150384581Y-101568005D01*
X150478939Y-101577672D01*
X150485355Y-101578000D01*
X150885385Y-101578000D01*
X150900624Y-101573525D01*
X150901829Y-101572135D01*
X150903500Y-101564452D01*
X150903500Y-101559885D01*
X151411500Y-101559885D01*
X151415975Y-101575124D01*
X151417365Y-101576329D01*
X151425048Y-101578000D01*
X151829596Y-101578000D01*
X151836111Y-101577663D01*
X151931703Y-101567744D01*
X151945102Y-101564850D01*
X152099283Y-101513412D01*
X152112462Y-101507238D01*
X152250307Y-101421937D01*
X152261708Y-101412901D01*
X152376239Y-101298170D01*
X152385251Y-101286759D01*
X152470318Y-101148755D01*
X152476462Y-101135577D01*
X152527639Y-100981284D01*
X152530505Y-100967919D01*
X152540172Y-100873561D01*
X152540500Y-100867145D01*
X152540500Y-100629615D01*
X152536025Y-100614376D01*
X152534635Y-100613171D01*
X152526952Y-100611500D01*
X151429615Y-100611500D01*
X151414376Y-100615975D01*
X151413171Y-100617365D01*
X151411500Y-100625048D01*
X151411500Y-101559885D01*
X150903500Y-101559885D01*
X150903500Y-100629615D01*
X150899025Y-100614376D01*
X150897635Y-100613171D01*
X150889952Y-100611500D01*
X149792615Y-100611500D01*
X149777376Y-100615975D01*
X149776171Y-100617365D01*
X149774500Y-100625048D01*
X149774500Y-100867096D01*
X136953808Y-100867096D01*
X137735520Y-100085385D01*
X149774500Y-100085385D01*
X149778975Y-100100624D01*
X149780365Y-100101829D01*
X149788048Y-100103500D01*
X150885385Y-100103500D01*
X150900624Y-100099025D01*
X150901829Y-100097635D01*
X150903500Y-100089952D01*
X150903500Y-100085385D01*
X151411500Y-100085385D01*
X151415975Y-100100624D01*
X151417365Y-100101829D01*
X151425048Y-100103500D01*
X152522385Y-100103500D01*
X152537624Y-100099025D01*
X152538829Y-100097635D01*
X152540500Y-100089952D01*
X152540500Y-99847904D01*
X152540163Y-99841389D01*
X152530244Y-99745797D01*
X152527350Y-99732398D01*
X152475912Y-99578217D01*
X152469738Y-99565038D01*
X152384437Y-99427193D01*
X152375401Y-99415792D01*
X152260670Y-99301261D01*
X152249259Y-99292249D01*
X152111255Y-99207182D01*
X152098077Y-99201038D01*
X151943784Y-99149861D01*
X151930419Y-99146995D01*
X151836061Y-99137328D01*
X151829644Y-99137000D01*
X151429615Y-99137000D01*
X151414376Y-99141475D01*
X151413171Y-99142865D01*
X151411500Y-99150548D01*
X151411500Y-100085385D01*
X150903500Y-100085385D01*
X150903500Y-99155115D01*
X150899025Y-99139876D01*
X150897635Y-99138671D01*
X150889952Y-99137000D01*
X150485404Y-99137000D01*
X150478889Y-99137337D01*
X150383297Y-99147256D01*
X150369898Y-99150150D01*
X150215717Y-99201588D01*
X150202538Y-99207762D01*
X150064693Y-99293063D01*
X150053292Y-99302099D01*
X149938761Y-99416830D01*
X149929749Y-99428241D01*
X149844682Y-99566245D01*
X149838538Y-99579423D01*
X149787361Y-99733716D01*
X149784495Y-99747081D01*
X149774828Y-99841439D01*
X149774500Y-99847856D01*
X149774500Y-100085385D01*
X137735520Y-100085385D01*
X138775986Y-99044919D01*
X138838298Y-99010893D01*
X138909114Y-99015958D01*
X138965949Y-99058505D01*
X138990391Y-99120844D01*
X138998820Y-99201038D01*
X139003958Y-99249928D01*
X139062973Y-99431556D01*
X139066276Y-99437278D01*
X139066277Y-99437279D01*
X139080381Y-99461708D01*
X139158460Y-99596944D01*
X139162878Y-99601851D01*
X139162879Y-99601852D01*
X139277850Y-99729540D01*
X139286247Y-99738866D01*
X139440748Y-99851118D01*
X139446776Y-99853802D01*
X139446778Y-99853803D01*
X139568849Y-99908152D01*
X139615212Y-99928794D01*
X139708612Y-99948647D01*
X139795556Y-99967128D01*
X139795561Y-99967128D01*
X139802013Y-99968500D01*
X139992987Y-99968500D01*
X139999439Y-99967128D01*
X139999444Y-99967128D01*
X140086388Y-99948647D01*
X140179788Y-99928794D01*
X140226151Y-99908152D01*
X140348222Y-99853803D01*
X140348224Y-99853802D01*
X140354252Y-99851118D01*
X140450870Y-99780921D01*
X140499213Y-99745797D01*
X140508753Y-99738866D01*
X140513168Y-99733963D01*
X140518080Y-99729540D01*
X140519205Y-99730789D01*
X140572514Y-99697949D01*
X140605700Y-99693500D01*
X140963733Y-99693500D01*
X140974916Y-99694027D01*
X140982409Y-99695702D01*
X140990335Y-99695453D01*
X140990336Y-99695453D01*
X141050486Y-99693562D01*
X141054445Y-99693500D01*
X141082356Y-99693500D01*
X141086291Y-99693003D01*
X141086356Y-99692995D01*
X141098193Y-99692062D01*
X141130451Y-99691048D01*
X141134470Y-99690922D01*
X141142389Y-99690673D01*
X141161843Y-99685021D01*
X141181200Y-99681013D01*
X141193430Y-99679468D01*
X141193431Y-99679468D01*
X141201297Y-99678474D01*
X141208668Y-99675555D01*
X141208670Y-99675555D01*
X141242412Y-99662196D01*
X141253642Y-99658351D01*
X141288483Y-99648229D01*
X141288484Y-99648229D01*
X141296093Y-99646018D01*
X141302912Y-99641985D01*
X141302917Y-99641983D01*
X141313528Y-99635707D01*
X141331276Y-99627012D01*
X141350117Y-99619552D01*
X141385887Y-99593564D01*
X141395807Y-99587048D01*
X141427035Y-99568580D01*
X141427038Y-99568578D01*
X141433862Y-99564542D01*
X141448183Y-99550221D01*
X141463217Y-99537380D01*
X141473193Y-99530132D01*
X141479607Y-99525472D01*
X141480781Y-99524052D01*
X141541714Y-99493223D01*
X141612336Y-99500509D01*
X141667808Y-99544819D01*
X141673736Y-99554121D01*
X141698460Y-99596944D01*
X141702878Y-99601851D01*
X141702879Y-99601852D01*
X141817850Y-99729540D01*
X141826247Y-99738866D01*
X141980748Y-99851118D01*
X141986776Y-99853802D01*
X141986778Y-99853803D01*
X142108849Y-99908152D01*
X142155212Y-99928794D01*
X142248612Y-99948647D01*
X142335556Y-99967128D01*
X142335561Y-99967128D01*
X142342013Y-99968500D01*
X142532987Y-99968500D01*
X142539439Y-99967128D01*
X142539444Y-99967128D01*
X142626388Y-99948647D01*
X142719788Y-99928794D01*
X142766151Y-99908152D01*
X142888222Y-99853803D01*
X142888224Y-99853802D01*
X142894252Y-99851118D01*
X143048753Y-99738866D01*
X143057150Y-99729540D01*
X143172121Y-99601852D01*
X143172122Y-99601851D01*
X143176540Y-99596944D01*
X143254619Y-99461708D01*
X143268723Y-99437279D01*
X143268724Y-99437278D01*
X143272027Y-99431556D01*
X143331042Y-99249928D01*
X143336181Y-99201038D01*
X143350314Y-99066565D01*
X143351004Y-99060000D01*
X143345843Y-99010893D01*
X143331732Y-98876635D01*
X143331732Y-98876633D01*
X143331042Y-98870072D01*
X143272027Y-98688444D01*
X143176540Y-98523056D01*
X143103363Y-98441785D01*
X143072647Y-98377779D01*
X143071000Y-98357476D01*
X143071000Y-98064500D01*
X143091002Y-97996379D01*
X143144658Y-97949886D01*
X143197000Y-97938500D01*
X143226502Y-97938500D01*
X143228950Y-97938307D01*
X143228958Y-97938307D01*
X143257421Y-97936067D01*
X143257426Y-97936066D01*
X143263831Y-97935562D01*
X143363769Y-97906528D01*
X143415988Y-97891357D01*
X143415990Y-97891356D01*
X143423601Y-97889145D01*
X143566807Y-97804453D01*
X143569489Y-97801771D01*
X143633861Y-97776498D01*
X143703484Y-97790400D01*
X143719312Y-97800572D01*
X143723193Y-97804453D01*
X143866399Y-97889145D01*
X143874010Y-97891356D01*
X143874012Y-97891357D01*
X143926231Y-97906528D01*
X144026169Y-97935562D01*
X144032574Y-97936066D01*
X144032579Y-97936067D01*
X144061042Y-97938307D01*
X144061050Y-97938307D01*
X144063498Y-97938500D01*
X144089000Y-97938500D01*
X144157121Y-97958502D01*
X144203614Y-98012158D01*
X144215000Y-98064500D01*
X144215000Y-98529929D01*
X144198119Y-98592928D01*
X144142973Y-98688444D01*
X144083958Y-98870072D01*
X144083268Y-98876633D01*
X144083268Y-98876635D01*
X144069157Y-99010893D01*
X144063996Y-99060000D01*
X144064686Y-99066565D01*
X144078820Y-99201038D01*
X144083958Y-99249928D01*
X144142973Y-99431556D01*
X144146276Y-99437278D01*
X144146277Y-99437279D01*
X144160381Y-99461708D01*
X144238460Y-99596944D01*
X144242878Y-99601851D01*
X144242879Y-99601852D01*
X144357850Y-99729540D01*
X144366247Y-99738866D01*
X144520748Y-99851118D01*
X144526776Y-99853802D01*
X144526778Y-99853803D01*
X144648849Y-99908152D01*
X144695212Y-99928794D01*
X144788612Y-99948647D01*
X144875556Y-99967128D01*
X144875561Y-99967128D01*
X144882013Y-99968500D01*
X145072987Y-99968500D01*
X145079439Y-99967128D01*
X145079444Y-99967128D01*
X145166388Y-99948647D01*
X145259788Y-99928794D01*
X145306151Y-99908152D01*
X145428222Y-99853803D01*
X145428224Y-99853802D01*
X145434252Y-99851118D01*
X145588753Y-99738866D01*
X145597150Y-99729540D01*
X145712121Y-99601852D01*
X145712122Y-99601851D01*
X145716540Y-99596944D01*
X145794619Y-99461708D01*
X145808723Y-99437279D01*
X145808724Y-99437278D01*
X145812027Y-99431556D01*
X145871042Y-99249928D01*
X145876181Y-99201038D01*
X145890314Y-99066565D01*
X145891004Y-99060000D01*
X145885843Y-99010893D01*
X145871732Y-98876635D01*
X145871732Y-98876633D01*
X145871042Y-98870072D01*
X145812027Y-98688444D01*
X145756881Y-98592928D01*
X145740000Y-98529929D01*
X145740000Y-97219876D01*
X145741433Y-97200926D01*
X145743624Y-97186527D01*
X145743624Y-97186521D01*
X145744724Y-97179292D01*
X145740415Y-97126317D01*
X145740000Y-97116102D01*
X145740000Y-97107975D01*
X145736689Y-97079576D01*
X145736260Y-97075236D01*
X145730902Y-97009367D01*
X145730309Y-97002074D01*
X145728053Y-96995112D01*
X145726857Y-96989124D01*
X145725449Y-96983167D01*
X145724601Y-96975893D01*
X145722103Y-96969011D01*
X145722102Y-96969007D01*
X145699555Y-96906893D01*
X145698145Y-96902789D01*
X145675513Y-96832925D01*
X145671713Y-96826662D01*
X145669175Y-96821120D01*
X145666433Y-96815644D01*
X145663934Y-96808759D01*
X145623685Y-96747368D01*
X145621370Y-96743700D01*
X145583273Y-96680919D01*
X145575833Y-96672495D01*
X145575862Y-96672469D01*
X145573262Y-96669538D01*
X145570458Y-96666184D01*
X145566446Y-96660065D01*
X145509913Y-96606511D01*
X145507472Y-96604134D01*
X145125405Y-96222067D01*
X145091379Y-96159755D01*
X145088500Y-96132972D01*
X145088500Y-95563498D01*
X145088307Y-95561042D01*
X145086067Y-95532579D01*
X145086066Y-95532574D01*
X145085562Y-95526169D01*
X145049594Y-95402366D01*
X145041357Y-95374012D01*
X145041356Y-95374010D01*
X145039145Y-95366399D01*
X145005338Y-95309235D01*
X144958491Y-95230020D01*
X144958489Y-95230017D01*
X144954453Y-95223193D01*
X144836807Y-95105547D01*
X144829983Y-95101511D01*
X144829980Y-95101509D01*
X144700427Y-95024892D01*
X144700428Y-95024892D01*
X144693601Y-95020855D01*
X144685990Y-95018644D01*
X144685988Y-95018643D01*
X144633769Y-95003472D01*
X144533831Y-94974438D01*
X144527426Y-94973934D01*
X144527421Y-94973933D01*
X144502971Y-94972009D01*
X144499614Y-94971745D01*
X144433273Y-94946459D01*
X144391133Y-94889321D01*
X144383500Y-94846133D01*
X144383500Y-93113362D01*
X144403502Y-93045241D01*
X144457158Y-92998748D01*
X144499619Y-92987750D01*
X144527336Y-92985570D01*
X144539931Y-92983270D01*
X144685790Y-92940893D01*
X144700221Y-92934648D01*
X144829678Y-92858089D01*
X144842104Y-92848449D01*
X144948449Y-92742104D01*
X144958089Y-92729678D01*
X145034648Y-92600221D01*
X145040893Y-92585790D01*
X145083269Y-92439935D01*
X145085570Y-92427333D01*
X145087807Y-92398916D01*
X145088000Y-92393986D01*
X145088000Y-91777115D01*
X145083525Y-91761876D01*
X145082135Y-91760671D01*
X145074452Y-91759000D01*
X144152000Y-91759000D01*
X144083879Y-91738998D01*
X144037386Y-91685342D01*
X144026000Y-91633000D01*
X144026000Y-91232885D01*
X144534000Y-91232885D01*
X144538475Y-91248124D01*
X144539865Y-91249329D01*
X144547548Y-91251000D01*
X145069884Y-91251000D01*
X145085123Y-91246525D01*
X145086328Y-91245135D01*
X145087999Y-91237452D01*
X145087999Y-90616017D01*
X145087805Y-90611080D01*
X145085570Y-90582664D01*
X145083270Y-90570069D01*
X145040893Y-90424210D01*
X145034648Y-90409779D01*
X144958089Y-90280322D01*
X144948449Y-90267896D01*
X144842104Y-90161551D01*
X144829678Y-90151911D01*
X144700221Y-90075352D01*
X144685790Y-90069107D01*
X144551395Y-90030061D01*
X144537294Y-90030101D01*
X144534000Y-90037370D01*
X144534000Y-91232885D01*
X144026000Y-91232885D01*
X144026000Y-90043122D01*
X144022027Y-90029591D01*
X144014129Y-90028456D01*
X143957154Y-90045009D01*
X143886157Y-90044806D01*
X143826541Y-90006253D01*
X143797232Y-89941588D01*
X143796000Y-89924012D01*
X143796000Y-88900000D01*
X146603996Y-88900000D01*
X146623958Y-89089928D01*
X146682973Y-89271556D01*
X146778460Y-89436944D01*
X146782878Y-89441851D01*
X146782879Y-89441852D01*
X146878133Y-89547642D01*
X146906247Y-89578866D01*
X147060748Y-89691118D01*
X147066776Y-89693802D01*
X147066778Y-89693803D01*
X147229172Y-89766105D01*
X147235212Y-89768794D01*
X147328612Y-89788647D01*
X147415556Y-89807128D01*
X147415561Y-89807128D01*
X147422013Y-89808500D01*
X147612987Y-89808500D01*
X147619439Y-89807128D01*
X147619444Y-89807128D01*
X147758160Y-89777642D01*
X147799788Y-89768794D01*
X147805828Y-89766105D01*
X147825489Y-89757352D01*
X147895856Y-89747918D01*
X147960152Y-89778025D01*
X147965831Y-89783364D01*
X150137095Y-91954628D01*
X150171121Y-92016940D01*
X150174000Y-92043723D01*
X150174000Y-92704528D01*
X150174337Y-92707774D01*
X150174337Y-92707778D01*
X150177899Y-92742104D01*
X150184974Y-92810294D01*
X150187155Y-92816830D01*
X150187155Y-92816832D01*
X150210769Y-92887611D01*
X150240950Y-92978074D01*
X150334022Y-93128476D01*
X150389954Y-93184310D01*
X150420609Y-93214912D01*
X150454688Y-93277194D01*
X150449685Y-93348014D01*
X150420764Y-93393103D01*
X150352346Y-93461641D01*
X150333195Y-93480825D01*
X150240385Y-93631390D01*
X150184703Y-93799267D01*
X150174000Y-93903728D01*
X150174000Y-94704528D01*
X150174337Y-94707774D01*
X150174337Y-94707778D01*
X150175704Y-94720948D01*
X150184974Y-94810294D01*
X150187155Y-94816830D01*
X150187155Y-94816832D01*
X150219658Y-94914254D01*
X150240950Y-94978074D01*
X150334022Y-95128476D01*
X150459197Y-95253433D01*
X150465428Y-95257274D01*
X150471173Y-95261811D01*
X150470123Y-95263141D01*
X150511608Y-95309235D01*
X150524000Y-95363725D01*
X150524000Y-96043550D01*
X150503998Y-96111671D01*
X150450342Y-96158164D01*
X150411004Y-96168877D01*
X150404720Y-96169529D01*
X150383194Y-96171762D01*
X150383191Y-96171763D01*
X150376335Y-96172474D01*
X150369799Y-96174655D01*
X150369797Y-96174655D01*
X150237695Y-96218728D01*
X150208555Y-96228450D01*
X150058152Y-96321522D01*
X149933195Y-96446697D01*
X149840385Y-96597262D01*
X149784703Y-96765139D01*
X149774000Y-96869600D01*
X149774000Y-97895400D01*
X149774337Y-97898646D01*
X149774337Y-97898650D01*
X149783890Y-97990716D01*
X149784974Y-98001165D01*
X149787155Y-98007701D01*
X149787155Y-98007703D01*
X149817980Y-98100096D01*
X149840950Y-98168945D01*
X149934022Y-98319348D01*
X150059197Y-98444305D01*
X150065427Y-98448145D01*
X150065428Y-98448146D01*
X150202590Y-98532694D01*
X150209762Y-98537115D01*
X150289505Y-98563564D01*
X150371111Y-98590632D01*
X150371113Y-98590632D01*
X150377639Y-98592797D01*
X150384475Y-98593497D01*
X150384478Y-98593498D01*
X150427531Y-98597909D01*
X150482100Y-98603500D01*
X151832900Y-98603500D01*
X151836146Y-98603163D01*
X151836150Y-98603163D01*
X151931807Y-98593238D01*
X151931811Y-98593237D01*
X151938665Y-98592526D01*
X151945201Y-98590345D01*
X151945203Y-98590345D01*
X152077305Y-98546272D01*
X152106445Y-98536550D01*
X152256848Y-98443478D01*
X152381805Y-98318303D01*
X152385646Y-98312072D01*
X152470775Y-98173968D01*
X152470776Y-98173966D01*
X152474615Y-98167738D01*
X152514362Y-98047905D01*
X152528132Y-98006389D01*
X152528132Y-98006387D01*
X152530297Y-97999861D01*
X152541000Y-97895400D01*
X152541000Y-96869600D01*
X152537195Y-96832925D01*
X152530738Y-96770693D01*
X152530737Y-96770689D01*
X152530026Y-96763835D01*
X152523292Y-96743649D01*
X152476368Y-96603003D01*
X152474050Y-96596055D01*
X152380978Y-96445652D01*
X152255803Y-96320695D01*
X152247223Y-96315406D01*
X152111468Y-96231725D01*
X152111466Y-96231724D01*
X152105238Y-96227885D01*
X152025495Y-96201436D01*
X151943889Y-96174368D01*
X151943887Y-96174368D01*
X151937361Y-96172203D01*
X151930523Y-96171502D01*
X151930521Y-96171502D01*
X151904158Y-96168801D01*
X151838430Y-96141960D01*
X151797648Y-96083845D01*
X151791000Y-96043457D01*
X151791000Y-95535766D01*
X151811002Y-95467645D01*
X151864658Y-95421152D01*
X151903997Y-95410439D01*
X151981807Y-95402366D01*
X151981810Y-95402365D01*
X151988666Y-95401654D01*
X151995202Y-95399473D01*
X151995204Y-95399473D01*
X152149498Y-95347996D01*
X152156446Y-95345678D01*
X152306848Y-95252606D01*
X152431805Y-95127431D01*
X152524615Y-94976866D01*
X152580297Y-94808989D01*
X152591000Y-94704528D01*
X152591000Y-93903728D01*
X152580026Y-93797962D01*
X152524050Y-93630182D01*
X152430978Y-93479780D01*
X152344391Y-93393344D01*
X152310312Y-93331062D01*
X152315315Y-93260242D01*
X152344236Y-93215153D01*
X152426634Y-93132611D01*
X152431805Y-93127431D01*
X152517906Y-92987750D01*
X152520775Y-92983096D01*
X152520776Y-92983094D01*
X152524615Y-92976866D01*
X152575545Y-92823316D01*
X152578132Y-92815517D01*
X152578132Y-92815515D01*
X152580297Y-92808989D01*
X152591000Y-92704528D01*
X152591000Y-91903728D01*
X152583042Y-91827028D01*
X152580738Y-91804820D01*
X152580737Y-91804816D01*
X152580026Y-91797962D01*
X152524050Y-91630182D01*
X152430978Y-91479780D01*
X152305803Y-91354823D01*
X152299572Y-91350982D01*
X152161468Y-91265853D01*
X152161466Y-91265852D01*
X152155238Y-91262013D01*
X152057332Y-91229539D01*
X151998973Y-91189110D01*
X151971736Y-91123546D01*
X151971000Y-91109947D01*
X151971000Y-88949197D01*
X151991002Y-88881076D01*
X152044658Y-88834583D01*
X152057123Y-88829674D01*
X152104502Y-88813867D01*
X152104504Y-88813866D01*
X152111446Y-88811550D01*
X152261848Y-88718478D01*
X152386805Y-88593303D01*
X152413538Y-88549935D01*
X152475775Y-88448968D01*
X152475776Y-88448966D01*
X152479615Y-88442738D01*
X152516071Y-88332826D01*
X152533132Y-88281389D01*
X152533132Y-88281387D01*
X152535297Y-88274861D01*
X152546000Y-88170400D01*
X152546000Y-87369600D01*
X152535026Y-87263834D01*
X152526731Y-87238969D01*
X152481368Y-87103002D01*
X152479050Y-87096054D01*
X152385978Y-86945652D01*
X152299391Y-86859216D01*
X152265312Y-86796934D01*
X152270315Y-86726114D01*
X152299236Y-86681025D01*
X152381634Y-86598483D01*
X152386805Y-86593303D01*
X152479615Y-86442738D01*
X152535297Y-86274861D01*
X152546000Y-86170400D01*
X152546000Y-85369600D01*
X152535026Y-85263834D01*
X152526731Y-85238969D01*
X152481368Y-85103002D01*
X152479050Y-85096054D01*
X152385978Y-84945652D01*
X152292982Y-84852818D01*
X152258903Y-84790536D01*
X152256000Y-84763645D01*
X152256000Y-82433950D01*
X152276002Y-82365829D01*
X152329658Y-82319336D01*
X152368996Y-82308623D01*
X152375280Y-82307971D01*
X152396806Y-82305738D01*
X152396809Y-82305737D01*
X152403665Y-82305026D01*
X152410201Y-82302845D01*
X152410203Y-82302845D01*
X152542305Y-82258772D01*
X152571445Y-82249050D01*
X152721848Y-82155978D01*
X152846805Y-82030803D01*
X152886650Y-81966163D01*
X152935775Y-81886468D01*
X152935776Y-81886466D01*
X152939615Y-81880238D01*
X152995297Y-81712361D01*
X153006000Y-81607900D01*
X153006000Y-80582100D01*
X153005663Y-80578850D01*
X152995738Y-80483193D01*
X152995737Y-80483189D01*
X152995026Y-80476335D01*
X152988765Y-80457567D01*
X152941368Y-80315503D01*
X152939050Y-80308555D01*
X152845978Y-80158152D01*
X152720803Y-80033195D01*
X152672983Y-80003718D01*
X152576468Y-79944225D01*
X152576466Y-79944224D01*
X152570238Y-79940385D01*
X152409754Y-79887155D01*
X152408889Y-79886868D01*
X152408887Y-79886868D01*
X152402361Y-79884703D01*
X152395525Y-79884003D01*
X152395522Y-79884002D01*
X152352469Y-79879591D01*
X152297900Y-79874000D01*
X150947100Y-79874000D01*
X150943854Y-79874337D01*
X150943850Y-79874337D01*
X150848193Y-79884262D01*
X150848189Y-79884263D01*
X150841335Y-79884974D01*
X150834799Y-79887155D01*
X150834797Y-79887155D01*
X150702695Y-79931228D01*
X150673555Y-79940950D01*
X150523152Y-80034022D01*
X150517979Y-80039204D01*
X150494136Y-80063089D01*
X150398195Y-80159197D01*
X150305385Y-80309762D01*
X150282269Y-80379456D01*
X150256361Y-80457567D01*
X150249703Y-80477639D01*
X150239000Y-80582100D01*
X150239000Y-81607900D01*
X150239337Y-81611146D01*
X150239337Y-81611150D01*
X150243243Y-81648790D01*
X150249974Y-81713665D01*
X150305950Y-81881445D01*
X150399022Y-82031848D01*
X150524197Y-82156805D01*
X150530427Y-82160645D01*
X150530428Y-82160646D01*
X150667590Y-82245194D01*
X150674762Y-82249615D01*
X150754505Y-82276064D01*
X150836111Y-82303132D01*
X150836113Y-82303132D01*
X150842639Y-82305297D01*
X150849477Y-82305998D01*
X150849479Y-82305998D01*
X150875842Y-82308699D01*
X150941570Y-82335540D01*
X150982352Y-82393655D01*
X150989000Y-82434043D01*
X150989000Y-84535500D01*
X150968998Y-84603621D01*
X150915342Y-84650114D01*
X150863000Y-84661500D01*
X150837100Y-84661500D01*
X150833854Y-84661837D01*
X150833850Y-84661837D01*
X150738192Y-84671762D01*
X150738188Y-84671763D01*
X150731334Y-84672474D01*
X150724798Y-84674655D01*
X150724796Y-84674655D01*
X150592694Y-84718728D01*
X150563554Y-84728450D01*
X150413152Y-84821522D01*
X150407979Y-84826704D01*
X150346339Y-84888451D01*
X150288195Y-84946697D01*
X150195385Y-85097262D01*
X150193081Y-85104209D01*
X150150446Y-85232751D01*
X150139703Y-85265139D01*
X150129000Y-85369600D01*
X150129000Y-86170400D01*
X150139974Y-86276166D01*
X150195950Y-86443946D01*
X150289022Y-86594348D01*
X150294204Y-86599521D01*
X150375609Y-86680784D01*
X150409688Y-86743066D01*
X150404685Y-86813886D01*
X150375764Y-86858975D01*
X150326070Y-86908756D01*
X150288195Y-86946697D01*
X150195385Y-87097262D01*
X150193081Y-87104209D01*
X150150446Y-87232751D01*
X150139703Y-87265139D01*
X150129000Y-87369600D01*
X150129000Y-88170400D01*
X150129337Y-88173646D01*
X150129337Y-88173650D01*
X150137914Y-88256308D01*
X150139974Y-88276166D01*
X150142155Y-88282702D01*
X150142155Y-88282704D01*
X150170906Y-88368879D01*
X150195950Y-88443946D01*
X150289022Y-88594348D01*
X150414197Y-88719305D01*
X150564762Y-88812115D01*
X150617668Y-88829663D01*
X150676027Y-88870094D01*
X150703264Y-88935658D01*
X150704000Y-88949256D01*
X150704000Y-90425534D01*
X150683998Y-90493655D01*
X150630342Y-90540148D01*
X150560068Y-90550252D01*
X150495488Y-90520758D01*
X150488905Y-90514629D01*
X149559612Y-89585335D01*
X148482024Y-88507747D01*
X148474484Y-88499461D01*
X148470372Y-88492982D01*
X148420720Y-88446356D01*
X148417879Y-88443602D01*
X148398142Y-88423865D01*
X148394945Y-88421385D01*
X148385923Y-88413680D01*
X148359472Y-88388841D01*
X148353693Y-88383414D01*
X148346747Y-88379595D01*
X148346744Y-88379593D01*
X148335938Y-88373652D01*
X148319419Y-88362801D01*
X148318955Y-88362441D01*
X148303413Y-88350386D01*
X148296144Y-88347241D01*
X148296140Y-88347238D01*
X148262835Y-88332826D01*
X148252175Y-88327604D01*
X148216284Y-88307873D01*
X148183348Y-88281768D01*
X148133175Y-88226045D01*
X148133174Y-88226044D01*
X148128753Y-88221134D01*
X147974252Y-88108882D01*
X147968224Y-88106198D01*
X147968222Y-88106197D01*
X147805819Y-88033891D01*
X147805818Y-88033891D01*
X147799788Y-88031206D01*
X147706387Y-88011353D01*
X147619444Y-87992872D01*
X147619439Y-87992872D01*
X147612987Y-87991500D01*
X147422013Y-87991500D01*
X147415561Y-87992872D01*
X147415556Y-87992872D01*
X147328612Y-88011353D01*
X147235212Y-88031206D01*
X147229182Y-88033891D01*
X147229181Y-88033891D01*
X147066778Y-88106197D01*
X147066776Y-88106198D01*
X147060748Y-88108882D01*
X146906247Y-88221134D01*
X146901826Y-88226044D01*
X146901825Y-88226045D01*
X146792703Y-88347238D01*
X146778460Y-88363056D01*
X146682973Y-88528444D01*
X146623958Y-88710072D01*
X146623268Y-88716633D01*
X146623268Y-88716635D01*
X146608379Y-88858298D01*
X146603996Y-88900000D01*
X143796000Y-88900000D01*
X143796000Y-88678462D01*
X143796527Y-88667279D01*
X143798202Y-88659786D01*
X143796062Y-88591709D01*
X143796000Y-88587750D01*
X143796000Y-88559839D01*
X143795495Y-88555839D01*
X143794562Y-88543996D01*
X143793422Y-88507725D01*
X143793173Y-88499806D01*
X143787521Y-88480352D01*
X143783513Y-88460995D01*
X143781968Y-88448765D01*
X143781968Y-88448764D01*
X143780974Y-88440898D01*
X143778055Y-88433525D01*
X143764696Y-88399783D01*
X143760851Y-88388553D01*
X143750729Y-88353712D01*
X143750729Y-88353711D01*
X143748518Y-88346102D01*
X143744485Y-88339283D01*
X143744483Y-88339278D01*
X143738207Y-88328667D01*
X143729512Y-88310919D01*
X143722052Y-88292078D01*
X143715242Y-88282704D01*
X143696064Y-88256308D01*
X143689548Y-88246388D01*
X143671080Y-88215160D01*
X143671078Y-88215157D01*
X143667042Y-88208333D01*
X143652721Y-88194012D01*
X143639880Y-88178978D01*
X143635971Y-88173598D01*
X143627972Y-88162588D01*
X143593895Y-88134397D01*
X143585116Y-88126407D01*
X141475905Y-86017195D01*
X141468365Y-86008909D01*
X141464253Y-86002430D01*
X141414601Y-85955804D01*
X141411760Y-85953050D01*
X141392023Y-85933313D01*
X141388826Y-85930833D01*
X141379804Y-85923128D01*
X141353353Y-85898289D01*
X141347574Y-85892862D01*
X141340628Y-85889043D01*
X141340625Y-85889041D01*
X141329819Y-85883100D01*
X141313300Y-85872249D01*
X141312836Y-85871889D01*
X141297294Y-85859834D01*
X141290025Y-85856689D01*
X141290021Y-85856686D01*
X141256716Y-85842274D01*
X141246066Y-85837057D01*
X141207313Y-85815753D01*
X141187690Y-85810715D01*
X141168987Y-85804311D01*
X141157673Y-85799415D01*
X141157672Y-85799415D01*
X141150398Y-85796267D01*
X141142575Y-85795028D01*
X141142565Y-85795025D01*
X141106729Y-85789349D01*
X141095109Y-85786943D01*
X141059964Y-85777920D01*
X141059963Y-85777920D01*
X141052283Y-85775948D01*
X141032029Y-85775948D01*
X141012318Y-85774397D01*
X141000139Y-85772468D01*
X140992310Y-85771228D01*
X140984418Y-85771974D01*
X140948292Y-85775389D01*
X140936434Y-85775948D01*
X133939281Y-85775948D01*
X133871160Y-85755946D01*
X133832137Y-85716251D01*
X133754832Y-85591328D01*
X133750978Y-85585100D01*
X133664391Y-85498664D01*
X133630312Y-85436382D01*
X133635315Y-85365562D01*
X133664236Y-85320473D01*
X133746634Y-85237931D01*
X133751805Y-85232751D01*
X133844615Y-85082186D01*
X133887835Y-84951880D01*
X133898132Y-84920837D01*
X133898132Y-84920835D01*
X133900297Y-84914309D01*
X133911000Y-84809848D01*
X133911000Y-84579500D01*
X133931002Y-84511379D01*
X133984658Y-84464886D01*
X134037000Y-84453500D01*
X134109300Y-84453500D01*
X134177421Y-84473502D01*
X134196647Y-84489843D01*
X134196920Y-84489540D01*
X134201832Y-84493963D01*
X134206247Y-84498866D01*
X134360748Y-84611118D01*
X134366776Y-84613802D01*
X134366778Y-84613803D01*
X134503455Y-84674655D01*
X134535212Y-84688794D01*
X134628613Y-84708647D01*
X134715556Y-84727128D01*
X134715561Y-84727128D01*
X134722013Y-84728500D01*
X134912987Y-84728500D01*
X134919439Y-84727128D01*
X134919444Y-84727128D01*
X135006387Y-84708647D01*
X135099788Y-84688794D01*
X135131545Y-84674655D01*
X135268222Y-84613803D01*
X135268224Y-84613802D01*
X135274252Y-84611118D01*
X135428753Y-84498866D01*
X135556540Y-84356944D01*
X135652027Y-84191556D01*
X135711042Y-84009928D01*
X135731004Y-83820000D01*
X135711042Y-83630072D01*
X135652027Y-83448444D01*
X135556540Y-83283056D01*
X135504473Y-83225229D01*
X135433175Y-83146045D01*
X135433174Y-83146044D01*
X135428753Y-83141134D01*
X135317770Y-83060500D01*
X135279594Y-83032763D01*
X135279593Y-83032762D01*
X135274252Y-83028882D01*
X135268224Y-83026198D01*
X135268222Y-83026197D01*
X135105819Y-82953891D01*
X135105818Y-82953891D01*
X135099788Y-82951206D01*
X135006388Y-82931353D01*
X134919444Y-82912872D01*
X134919439Y-82912872D01*
X134912987Y-82911500D01*
X134722013Y-82911500D01*
X134715561Y-82912872D01*
X134715556Y-82912872D01*
X134628612Y-82931353D01*
X134535212Y-82951206D01*
X134529182Y-82953891D01*
X134529181Y-82953891D01*
X134366778Y-83026197D01*
X134366776Y-83026198D01*
X134360748Y-83028882D01*
X134355407Y-83032762D01*
X134355406Y-83032763D01*
X134245187Y-83112842D01*
X134206247Y-83141134D01*
X134201832Y-83146037D01*
X134196920Y-83150460D01*
X134195795Y-83149211D01*
X134142486Y-83182051D01*
X134109300Y-83186500D01*
X133462000Y-83186500D01*
X133393879Y-83166498D01*
X133347386Y-83112842D01*
X133336000Y-83060500D01*
X133336000Y-80741581D01*
X133356002Y-80673460D01*
X133409658Y-80626967D01*
X133422123Y-80622058D01*
X133469502Y-80606251D01*
X133469504Y-80606250D01*
X133476446Y-80603934D01*
X133506452Y-80585366D01*
X133620620Y-80514716D01*
X133626848Y-80510862D01*
X133751805Y-80385687D01*
X133795067Y-80315503D01*
X133840775Y-80241352D01*
X133840776Y-80241350D01*
X133844615Y-80235122D01*
X133892977Y-80089315D01*
X133933408Y-80030955D01*
X133998972Y-80003718D01*
X134068853Y-80016251D01*
X134101665Y-80039887D01*
X135833306Y-81771528D01*
X135845693Y-81785941D01*
X135858662Y-81803564D01*
X135864245Y-81808307D01*
X135899171Y-81837979D01*
X135906687Y-81844909D01*
X135912431Y-81850653D01*
X135915305Y-81852927D01*
X135915312Y-81852933D01*
X135934827Y-81868372D01*
X135938231Y-81871163D01*
X135988588Y-81913945D01*
X135988592Y-81913948D01*
X135994167Y-81918684D01*
X136000684Y-81922012D01*
X136005748Y-81925389D01*
X136010972Y-81928616D01*
X136016716Y-81933160D01*
X136023347Y-81936259D01*
X136083198Y-81964232D01*
X136087149Y-81966163D01*
X136152520Y-81999543D01*
X136159635Y-82001284D01*
X136165381Y-82003421D01*
X136171164Y-82005345D01*
X136177795Y-82008444D01*
X136249673Y-82023394D01*
X136253945Y-82024361D01*
X136325228Y-82041804D01*
X136330827Y-82042151D01*
X136330831Y-82042152D01*
X136336446Y-82042500D01*
X136336444Y-82042539D01*
X136340345Y-82042772D01*
X136344704Y-82043161D01*
X136351872Y-82044652D01*
X136359189Y-82044454D01*
X136429693Y-82042546D01*
X136433102Y-82042500D01*
X137843000Y-82042500D01*
X137911121Y-82062502D01*
X137957614Y-82116158D01*
X137969000Y-82168500D01*
X137969000Y-82828134D01*
X137975755Y-82890316D01*
X138026885Y-83026705D01*
X138114239Y-83143261D01*
X138230795Y-83230615D01*
X138367184Y-83281745D01*
X138429366Y-83288500D01*
X141525634Y-83288500D01*
X141587816Y-83281745D01*
X141724205Y-83230615D01*
X141840761Y-83143261D01*
X141928115Y-83026705D01*
X141979245Y-82890316D01*
X141981490Y-82869654D01*
X143833118Y-82869654D01*
X143840173Y-82879627D01*
X143871179Y-82905551D01*
X143878098Y-82910579D01*
X144102772Y-83051515D01*
X144110307Y-83055556D01*
X144352020Y-83164694D01*
X144360051Y-83167680D01*
X144614332Y-83243002D01*
X144622684Y-83244869D01*
X144884840Y-83284984D01*
X144893374Y-83285700D01*
X145158545Y-83289867D01*
X145167096Y-83289418D01*
X145430383Y-83257557D01*
X145438784Y-83255955D01*
X145695324Y-83188653D01*
X145703426Y-83185926D01*
X145948449Y-83084434D01*
X145956117Y-83080628D01*
X146185098Y-82946822D01*
X146192179Y-82942009D01*
X146272155Y-82879301D01*
X146280625Y-82867442D01*
X146274108Y-82855818D01*
X145070312Y-81652022D01*
X145056368Y-81644408D01*
X145054535Y-81644539D01*
X145047920Y-81648790D01*
X143840410Y-82856300D01*
X143833118Y-82869654D01*
X141981490Y-82869654D01*
X141986000Y-82828134D01*
X141986000Y-81263204D01*
X143045165Y-81263204D01*
X143060432Y-81527969D01*
X143061505Y-81536470D01*
X143112565Y-81796722D01*
X143114776Y-81804974D01*
X143200684Y-82055894D01*
X143203999Y-82063779D01*
X143323164Y-82300713D01*
X143327520Y-82308079D01*
X143456847Y-82496250D01*
X143467101Y-82504594D01*
X143480842Y-82497448D01*
X144685478Y-81292812D01*
X144691856Y-81281132D01*
X145421908Y-81281132D01*
X145422039Y-81282965D01*
X145426290Y-81289580D01*
X146633230Y-82496520D01*
X146645439Y-82503187D01*
X146656939Y-82494497D01*
X146754331Y-82361913D01*
X146758918Y-82354685D01*
X146885462Y-82121621D01*
X146889030Y-82113827D01*
X146982771Y-81865750D01*
X146985248Y-81857544D01*
X147044454Y-81599038D01*
X147045794Y-81590577D01*
X147069531Y-81324616D01*
X147069777Y-81319677D01*
X147070166Y-81282485D01*
X147070023Y-81277519D01*
X147051862Y-81011123D01*
X147050701Y-81002649D01*
X146996919Y-80742944D01*
X146994620Y-80734709D01*
X146906088Y-80484705D01*
X146902691Y-80476854D01*
X146781050Y-80241178D01*
X146776622Y-80233866D01*
X146657531Y-80064417D01*
X146647009Y-80056037D01*
X146633621Y-80063089D01*
X145429522Y-81267188D01*
X145421908Y-81281132D01*
X144691856Y-81281132D01*
X144693092Y-81278868D01*
X144692961Y-81277035D01*
X144688710Y-81270420D01*
X143481314Y-80063024D01*
X143469304Y-80056466D01*
X143457564Y-80065434D01*
X143349435Y-80215911D01*
X143344918Y-80223196D01*
X143220825Y-80457567D01*
X143217339Y-80465395D01*
X143126200Y-80714446D01*
X143123811Y-80722670D01*
X143067312Y-80981795D01*
X143066063Y-80990250D01*
X143045254Y-81254653D01*
X143045165Y-81263204D01*
X141986000Y-81263204D01*
X141986000Y-80402028D01*
X142006002Y-80333907D01*
X142022905Y-80312933D01*
X142643338Y-79692500D01*
X143834084Y-79692500D01*
X143840480Y-79703770D01*
X145044688Y-80907978D01*
X145058632Y-80915592D01*
X145060465Y-80915461D01*
X145067080Y-80911210D01*
X146274104Y-79704186D01*
X146281295Y-79691017D01*
X146273973Y-79680780D01*
X146226733Y-79642115D01*
X146219761Y-79637160D01*
X145993622Y-79498582D01*
X145986052Y-79494624D01*
X145743204Y-79388022D01*
X145735144Y-79385120D01*
X145480092Y-79312467D01*
X145471714Y-79310685D01*
X145209156Y-79273318D01*
X145200611Y-79272691D01*
X144935408Y-79271302D01*
X144926874Y-79271839D01*
X144663933Y-79306456D01*
X144655535Y-79308149D01*
X144399738Y-79378127D01*
X144391643Y-79380946D01*
X144147699Y-79484997D01*
X144140077Y-79488881D01*
X143912513Y-79625075D01*
X143905481Y-79629962D01*
X143842553Y-79680377D01*
X143834084Y-79692500D01*
X142643338Y-79692500D01*
X143416433Y-78919405D01*
X143478745Y-78885379D01*
X143505528Y-78882500D01*
X150220930Y-78882500D01*
X150289051Y-78902502D01*
X150328074Y-78942197D01*
X150399022Y-79056848D01*
X150524197Y-79181805D01*
X150530427Y-79185645D01*
X150530428Y-79185646D01*
X150667590Y-79270194D01*
X150674762Y-79274615D01*
X150694100Y-79281029D01*
X150836111Y-79328132D01*
X150836113Y-79328132D01*
X150842639Y-79330297D01*
X150849475Y-79330997D01*
X150849478Y-79330998D01*
X150886305Y-79334771D01*
X150947100Y-79341000D01*
X152297900Y-79341000D01*
X152301146Y-79340663D01*
X152301150Y-79340663D01*
X152396807Y-79330738D01*
X152396811Y-79330737D01*
X152403665Y-79330026D01*
X152410201Y-79327845D01*
X152410203Y-79327845D01*
X152561398Y-79277402D01*
X152571445Y-79274050D01*
X152721848Y-79180978D01*
X152846805Y-79055803D01*
X152916833Y-78942197D01*
X152935775Y-78911468D01*
X152935776Y-78911466D01*
X152939615Y-78905238D01*
X152995297Y-78737361D01*
X153006000Y-78632900D01*
X153006000Y-77607100D01*
X153004229Y-77590028D01*
X152995738Y-77508193D01*
X152995737Y-77508189D01*
X152995026Y-77501335D01*
X152972417Y-77433566D01*
X152941368Y-77340503D01*
X152939050Y-77333555D01*
X152845978Y-77183152D01*
X152821570Y-77158786D01*
X152725983Y-77063366D01*
X152720803Y-77058195D01*
X152714572Y-77054354D01*
X152576468Y-76969225D01*
X152576466Y-76969224D01*
X152570238Y-76965385D01*
X152536193Y-76954093D01*
X152477833Y-76913663D01*
X152450596Y-76848099D01*
X152463129Y-76778217D01*
X152511453Y-76726205D01*
X152575860Y-76708500D01*
X154305500Y-76708500D01*
X154373621Y-76728502D01*
X154420114Y-76782158D01*
X154431500Y-76834500D01*
X154431500Y-103505500D01*
X154411498Y-103573621D01*
X154357842Y-103620114D01*
X154305500Y-103631500D01*
X130174500Y-103631500D01*
X130106379Y-103611498D01*
X130059886Y-103557842D01*
X130048500Y-103505500D01*
X130048500Y-98372885D01*
X131669500Y-98372885D01*
X131673975Y-98388124D01*
X131675365Y-98389329D01*
X131683048Y-98391000D01*
X132630385Y-98391000D01*
X132645624Y-98386525D01*
X132646829Y-98385135D01*
X132648500Y-98377452D01*
X132648500Y-98372885D01*
X133156500Y-98372885D01*
X133160975Y-98388124D01*
X133162365Y-98389329D01*
X133170048Y-98391000D01*
X134117384Y-98391000D01*
X134132623Y-98386525D01*
X134133828Y-98385135D01*
X134135499Y-98377452D01*
X134135499Y-98260405D01*
X134135162Y-98253886D01*
X134125243Y-98158294D01*
X134122351Y-98144900D01*
X134070912Y-97990716D01*
X134064739Y-97977538D01*
X133979437Y-97839693D01*
X133970401Y-97828292D01*
X133855671Y-97713761D01*
X133844260Y-97704749D01*
X133706257Y-97619684D01*
X133693076Y-97613537D01*
X133538790Y-97562362D01*
X133525414Y-97559495D01*
X133431062Y-97549828D01*
X133424645Y-97549500D01*
X133174615Y-97549500D01*
X133159376Y-97553975D01*
X133158171Y-97555365D01*
X133156500Y-97563048D01*
X133156500Y-98372885D01*
X132648500Y-98372885D01*
X132648500Y-97567616D01*
X132644025Y-97552377D01*
X132642635Y-97551172D01*
X132634952Y-97549501D01*
X132380405Y-97549501D01*
X132373886Y-97549838D01*
X132278294Y-97559757D01*
X132264900Y-97562649D01*
X132110716Y-97614088D01*
X132097538Y-97620261D01*
X131959693Y-97705563D01*
X131948292Y-97714599D01*
X131833761Y-97829329D01*
X131824749Y-97840740D01*
X131739684Y-97978743D01*
X131733537Y-97991924D01*
X131682362Y-98146210D01*
X131679495Y-98159586D01*
X131669828Y-98253938D01*
X131669500Y-98260355D01*
X131669500Y-98372885D01*
X130048500Y-98372885D01*
X130048500Y-95051543D01*
X131519501Y-95051543D01*
X131519838Y-95058062D01*
X131529757Y-95153654D01*
X131532649Y-95167048D01*
X131584088Y-95321232D01*
X131590261Y-95334410D01*
X131675563Y-95472255D01*
X131684599Y-95483656D01*
X131799329Y-95598187D01*
X131810740Y-95607199D01*
X131948743Y-95692264D01*
X131961924Y-95698411D01*
X132116210Y-95749586D01*
X132129586Y-95752453D01*
X132223938Y-95762120D01*
X132230354Y-95762448D01*
X132430385Y-95762448D01*
X132445624Y-95757973D01*
X132446829Y-95756583D01*
X132448500Y-95748900D01*
X132448500Y-95744332D01*
X132956500Y-95744332D01*
X132960975Y-95759571D01*
X132962365Y-95760776D01*
X132970048Y-95762447D01*
X133174595Y-95762447D01*
X133181114Y-95762110D01*
X133276706Y-95752191D01*
X133290100Y-95749299D01*
X133444284Y-95697860D01*
X133457462Y-95691687D01*
X133595307Y-95606385D01*
X133606708Y-95597349D01*
X133721239Y-95482619D01*
X133730251Y-95471208D01*
X133815316Y-95333205D01*
X133821463Y-95320024D01*
X133872638Y-95165738D01*
X133875505Y-95152362D01*
X133885172Y-95058010D01*
X133885500Y-95051594D01*
X133885500Y-94739063D01*
X133881025Y-94723824D01*
X133879635Y-94722619D01*
X133871952Y-94720948D01*
X132974615Y-94720948D01*
X132959376Y-94725423D01*
X132958171Y-94726813D01*
X132956500Y-94734496D01*
X132956500Y-95744332D01*
X132448500Y-95744332D01*
X132448500Y-94739063D01*
X132444025Y-94723824D01*
X132442635Y-94722619D01*
X132434952Y-94720948D01*
X131537616Y-94720948D01*
X131522377Y-94725423D01*
X131521172Y-94726813D01*
X131519501Y-94734496D01*
X131519501Y-95051543D01*
X130048500Y-95051543D01*
X130048500Y-94194833D01*
X131519500Y-94194833D01*
X131523975Y-94210072D01*
X131525365Y-94211277D01*
X131533048Y-94212948D01*
X132430385Y-94212948D01*
X132445624Y-94208473D01*
X132446829Y-94207083D01*
X132448500Y-94199400D01*
X132448500Y-94194833D01*
X132956500Y-94194833D01*
X132960975Y-94210072D01*
X132962365Y-94211277D01*
X132970048Y-94212948D01*
X133867384Y-94212948D01*
X133882623Y-94208473D01*
X133883828Y-94207083D01*
X133885499Y-94199400D01*
X133885499Y-93882353D01*
X133885162Y-93875834D01*
X133875243Y-93780242D01*
X133872351Y-93766848D01*
X133820912Y-93612664D01*
X133814739Y-93599486D01*
X133729437Y-93461641D01*
X133720401Y-93450240D01*
X133605671Y-93335709D01*
X133594260Y-93326697D01*
X133456257Y-93241632D01*
X133443076Y-93235485D01*
X133288790Y-93184310D01*
X133275414Y-93181443D01*
X133181062Y-93171776D01*
X133174645Y-93171448D01*
X132974615Y-93171448D01*
X132959376Y-93175923D01*
X132958171Y-93177313D01*
X132956500Y-93184996D01*
X132956500Y-94194833D01*
X132448500Y-94194833D01*
X132448500Y-93189564D01*
X132444025Y-93174325D01*
X132442635Y-93173120D01*
X132434952Y-93171449D01*
X132230405Y-93171449D01*
X132223886Y-93171786D01*
X132128294Y-93181705D01*
X132114900Y-93184597D01*
X131960716Y-93236036D01*
X131947538Y-93242209D01*
X131809693Y-93327511D01*
X131798292Y-93336547D01*
X131683761Y-93451277D01*
X131674749Y-93462688D01*
X131589684Y-93600691D01*
X131583537Y-93613872D01*
X131532362Y-93768158D01*
X131529495Y-93781534D01*
X131519828Y-93875886D01*
X131519500Y-93882303D01*
X131519500Y-94194833D01*
X130048500Y-94194833D01*
X130048500Y-76834500D01*
X130068502Y-76766379D01*
X130122158Y-76719886D01*
X130174500Y-76708500D01*
X131448010Y-76708500D01*
X131516131Y-76728502D01*
G37*
%TD.AperFunction*%
%TD*%
M02*
