%TF.GenerationSoftware,KiCad,Pcbnew,(6.0.11-0)*%
%TF.CreationDate,2023-02-17T15:47:51-08:00*%
%TF.ProjectId,lab4 exercise 2,6c616234-2065-4786-9572-636973652032,rev?*%
%TF.SameCoordinates,Original*%
%TF.FileFunction,Legend,Top*%
%TF.FilePolarity,Positive*%
%FSLAX46Y46*%
G04 Gerber Fmt 4.6, Leading zero omitted, Abs format (unit mm)*
G04 Created by KiCad (PCBNEW (6.0.11-0)) date 2023-02-17 15:47:51*
%MOMM*%
%LPD*%
G01*
G04 APERTURE LIST*
%ADD10C,0.150000*%
%ADD11C,0.120000*%
G04 APERTURE END LIST*
D10*
X135335238Y-101528571D02*
X135668571Y-101528571D01*
X135811428Y-102052380D02*
X135335238Y-102052380D01*
X135335238Y-101052380D01*
X135811428Y-101052380D01*
X136240000Y-101528571D02*
X136573333Y-101528571D01*
X136716190Y-102052380D02*
X136240000Y-102052380D01*
X136240000Y-101052380D01*
X136716190Y-101052380D01*
X137097142Y-101147619D02*
X137144761Y-101100000D01*
X137240000Y-101052380D01*
X137478095Y-101052380D01*
X137573333Y-101100000D01*
X137620952Y-101147619D01*
X137668571Y-101242857D01*
X137668571Y-101338095D01*
X137620952Y-101480952D01*
X137049523Y-102052380D01*
X137668571Y-102052380D01*
X138287619Y-101052380D02*
X138382857Y-101052380D01*
X138478095Y-101100000D01*
X138525714Y-101147619D01*
X138573333Y-101242857D01*
X138620952Y-101433333D01*
X138620952Y-101671428D01*
X138573333Y-101861904D01*
X138525714Y-101957142D01*
X138478095Y-102004761D01*
X138382857Y-102052380D01*
X138287619Y-102052380D01*
X138192380Y-102004761D01*
X138144761Y-101957142D01*
X138097142Y-101861904D01*
X138049523Y-101671428D01*
X138049523Y-101433333D01*
X138097142Y-101242857D01*
X138144761Y-101147619D01*
X138192380Y-101100000D01*
X138287619Y-101052380D01*
X139573333Y-102052380D02*
X139001904Y-102052380D01*
X139287619Y-102052380D02*
X139287619Y-101052380D01*
X139192380Y-101195238D01*
X139097142Y-101290476D01*
X139001904Y-101338095D01*
X139763809Y-102147619D02*
X140525714Y-102147619D01*
X141049523Y-101052380D02*
X141049523Y-101766666D01*
X141001904Y-101909523D01*
X140906666Y-102004761D01*
X140763809Y-102052380D01*
X140668571Y-102052380D01*
X141525714Y-102052380D02*
X141525714Y-101385714D01*
X141525714Y-101052380D02*
X141478095Y-101100000D01*
X141525714Y-101147619D01*
X141573333Y-101100000D01*
X141525714Y-101052380D01*
X141525714Y-101147619D01*
X142430476Y-101385714D02*
X142430476Y-102052380D01*
X142001904Y-101385714D02*
X142001904Y-101909523D01*
X142049523Y-102004761D01*
X142144761Y-102052380D01*
X142287619Y-102052380D01*
X142382857Y-102004761D01*
X142430476Y-101957142D01*
X142811428Y-101385714D02*
X143049523Y-102052380D01*
X143287619Y-101385714D02*
X143049523Y-102052380D01*
X142954285Y-102290476D01*
X142906666Y-102338095D01*
X142811428Y-102385714D01*
X144097142Y-102052380D02*
X144097142Y-101528571D01*
X144049523Y-101433333D01*
X143954285Y-101385714D01*
X143763809Y-101385714D01*
X143668571Y-101433333D01*
X144097142Y-102004761D02*
X144001904Y-102052380D01*
X143763809Y-102052380D01*
X143668571Y-102004761D01*
X143620952Y-101909523D01*
X143620952Y-101814285D01*
X143668571Y-101719047D01*
X143763809Y-101671428D01*
X144001904Y-101671428D01*
X144097142Y-101623809D01*
X144573333Y-101385714D02*
X144573333Y-102052380D01*
X144573333Y-101480952D02*
X144620952Y-101433333D01*
X144716190Y-101385714D01*
X144859047Y-101385714D01*
X144954285Y-101433333D01*
X145001904Y-101528571D01*
X145001904Y-102052380D01*
X145906666Y-101385714D02*
X145906666Y-102195238D01*
X145859047Y-102290476D01*
X145811428Y-102338095D01*
X145716190Y-102385714D01*
X145573333Y-102385714D01*
X145478095Y-102338095D01*
X145906666Y-102004761D02*
X145811428Y-102052380D01*
X145620952Y-102052380D01*
X145525714Y-102004761D01*
X145478095Y-101957142D01*
X145430476Y-101861904D01*
X145430476Y-101576190D01*
X145478095Y-101480952D01*
X145525714Y-101433333D01*
X145620952Y-101385714D01*
X145811428Y-101385714D01*
X145906666Y-101433333D01*
X146144761Y-102147619D02*
X146906666Y-102147619D01*
X147620952Y-102052380D02*
X147144761Y-102052380D01*
X147144761Y-101052380D01*
X147859047Y-101385714D02*
X148097142Y-102052380D01*
X148335238Y-101385714D02*
X148097142Y-102052380D01*
X148001904Y-102290476D01*
X147954285Y-102338095D01*
X147859047Y-102385714D01*
X149144761Y-101385714D02*
X149144761Y-102052380D01*
X148716190Y-101385714D02*
X148716190Y-101909523D01*
X148763809Y-102004761D01*
X148859047Y-102052380D01*
X149001904Y-102052380D01*
X149097142Y-102004761D01*
X149144761Y-101957142D01*
%TO.C,R3*%
X153439880Y-86936666D02*
X152963690Y-87270000D01*
X153439880Y-87508095D02*
X152439880Y-87508095D01*
X152439880Y-87127142D01*
X152487500Y-87031904D01*
X152535119Y-86984285D01*
X152630357Y-86936666D01*
X152773214Y-86936666D01*
X152868452Y-86984285D01*
X152916071Y-87031904D01*
X152963690Y-87127142D01*
X152963690Y-87508095D01*
X152439880Y-86603333D02*
X152439880Y-85984285D01*
X152820833Y-86317619D01*
X152820833Y-86174761D01*
X152868452Y-86079523D01*
X152916071Y-86031904D01*
X153011309Y-85984285D01*
X153249404Y-85984285D01*
X153344642Y-86031904D01*
X153392261Y-86079523D01*
X153439880Y-86174761D01*
X153439880Y-86460476D01*
X153392261Y-86555714D01*
X153344642Y-86603333D01*
%TO.C,R4*%
X153484880Y-93470794D02*
X153008690Y-93804128D01*
X153484880Y-94042223D02*
X152484880Y-94042223D01*
X152484880Y-93661270D01*
X152532500Y-93566032D01*
X152580119Y-93518413D01*
X152675357Y-93470794D01*
X152818214Y-93470794D01*
X152913452Y-93518413D01*
X152961071Y-93566032D01*
X153008690Y-93661270D01*
X153008690Y-94042223D01*
X152818214Y-92613651D02*
X153484880Y-92613651D01*
X152437261Y-92851747D02*
X153151547Y-93089842D01*
X153151547Y-92470794D01*
%TO.C,R2*%
X134804880Y-85576114D02*
X134328690Y-85909448D01*
X134804880Y-86147543D02*
X133804880Y-86147543D01*
X133804880Y-85766590D01*
X133852500Y-85671352D01*
X133900119Y-85623733D01*
X133995357Y-85576114D01*
X134138214Y-85576114D01*
X134233452Y-85623733D01*
X134281071Y-85671352D01*
X134328690Y-85766590D01*
X134328690Y-86147543D01*
X133900119Y-85195162D02*
X133852500Y-85147543D01*
X133804880Y-85052305D01*
X133804880Y-84814209D01*
X133852500Y-84718971D01*
X133900119Y-84671352D01*
X133995357Y-84623733D01*
X134090595Y-84623733D01*
X134233452Y-84671352D01*
X134804880Y-85242781D01*
X134804880Y-84623733D01*
%TO.C,D1*%
X150254880Y-80345595D02*
X149254880Y-80345595D01*
X149254880Y-80107500D01*
X149302500Y-79964642D01*
X149397738Y-79869404D01*
X149492976Y-79821785D01*
X149683452Y-79774166D01*
X149826309Y-79774166D01*
X150016785Y-79821785D01*
X150112023Y-79869404D01*
X150207261Y-79964642D01*
X150254880Y-80107500D01*
X150254880Y-80345595D01*
X150254880Y-78821785D02*
X150254880Y-79393214D01*
X150254880Y-79107500D02*
X149254880Y-79107500D01*
X149397738Y-79202738D01*
X149492976Y-79297976D01*
X149540595Y-79393214D01*
%TO.C,U1*%
X145227380Y-94741904D02*
X146036904Y-94741904D01*
X146132142Y-94694285D01*
X146179761Y-94646666D01*
X146227380Y-94551428D01*
X146227380Y-94360952D01*
X146179761Y-94265714D01*
X146132142Y-94218095D01*
X146036904Y-94170476D01*
X145227380Y-94170476D01*
X146227380Y-93170476D02*
X146227380Y-93741904D01*
X146227380Y-93456190D02*
X145227380Y-93456190D01*
X145370238Y-93551428D01*
X145465476Y-93646666D01*
X145513095Y-93741904D01*
%TO.C,J1*%
X149724166Y-83272380D02*
X149724166Y-83986666D01*
X149676547Y-84129523D01*
X149581309Y-84224761D01*
X149438452Y-84272380D01*
X149343214Y-84272380D01*
X150724166Y-84272380D02*
X150152738Y-84272380D01*
X150438452Y-84272380D02*
X150438452Y-83272380D01*
X150343214Y-83415238D01*
X150247976Y-83510476D01*
X150152738Y-83558095D01*
%TO.C,D2*%
X149789880Y-99608095D02*
X148789880Y-99608095D01*
X148789880Y-99370000D01*
X148837500Y-99227142D01*
X148932738Y-99131904D01*
X149027976Y-99084285D01*
X149218452Y-99036666D01*
X149361309Y-99036666D01*
X149551785Y-99084285D01*
X149647023Y-99131904D01*
X149742261Y-99227142D01*
X149789880Y-99370000D01*
X149789880Y-99608095D01*
X148885119Y-98655714D02*
X148837500Y-98608095D01*
X148789880Y-98512857D01*
X148789880Y-98274761D01*
X148837500Y-98179523D01*
X148885119Y-98131904D01*
X148980357Y-98084285D01*
X149075595Y-98084285D01*
X149218452Y-98131904D01*
X149789880Y-98703333D01*
X149789880Y-98084285D01*
%TO.C,C2*%
X131579642Y-99849166D02*
X131627261Y-99896785D01*
X131674880Y-100039642D01*
X131674880Y-100134880D01*
X131627261Y-100277738D01*
X131532023Y-100372976D01*
X131436785Y-100420595D01*
X131246309Y-100468214D01*
X131103452Y-100468214D01*
X130912976Y-100420595D01*
X130817738Y-100372976D01*
X130722500Y-100277738D01*
X130674880Y-100134880D01*
X130674880Y-100039642D01*
X130722500Y-99896785D01*
X130770119Y-99849166D01*
X130770119Y-99468214D02*
X130722500Y-99420595D01*
X130674880Y-99325357D01*
X130674880Y-99087261D01*
X130722500Y-98992023D01*
X130770119Y-98944404D01*
X130865357Y-98896785D01*
X130960595Y-98896785D01*
X131103452Y-98944404D01*
X131674880Y-99515833D01*
X131674880Y-98896785D01*
%TO.C,R1*%
X134804880Y-78729050D02*
X134328690Y-79062384D01*
X134804880Y-79300479D02*
X133804880Y-79300479D01*
X133804880Y-78919526D01*
X133852500Y-78824288D01*
X133900119Y-78776669D01*
X133995357Y-78729050D01*
X134138214Y-78729050D01*
X134233452Y-78776669D01*
X134281071Y-78824288D01*
X134328690Y-78919526D01*
X134328690Y-79300479D01*
X134804880Y-77776669D02*
X134804880Y-78348098D01*
X134804880Y-78062384D02*
X133804880Y-78062384D01*
X133947738Y-78157622D01*
X134042976Y-78252860D01*
X134090595Y-78348098D01*
%TO.C,C1*%
X134809642Y-93196114D02*
X134857261Y-93243733D01*
X134904880Y-93386590D01*
X134904880Y-93481828D01*
X134857261Y-93624686D01*
X134762023Y-93719924D01*
X134666785Y-93767543D01*
X134476309Y-93815162D01*
X134333452Y-93815162D01*
X134142976Y-93767543D01*
X134047738Y-93719924D01*
X133952500Y-93624686D01*
X133904880Y-93481828D01*
X133904880Y-93386590D01*
X133952500Y-93243733D01*
X134000119Y-93196114D01*
X134904880Y-92243733D02*
X134904880Y-92815162D01*
X134904880Y-92529448D02*
X133904880Y-92529448D01*
X134047738Y-92624686D01*
X134142976Y-92719924D01*
X134190595Y-92815162D01*
D11*
%TO.C,R3*%
X152072500Y-86542936D02*
X152072500Y-86997064D01*
X150602500Y-86542936D02*
X150602500Y-86997064D01*
%TO.C,R4*%
X152117500Y-93077064D02*
X152117500Y-93531192D01*
X150647500Y-93077064D02*
X150647500Y-93531192D01*
%TO.C,R2*%
X131967500Y-85182384D02*
X131967500Y-85636512D01*
X133437500Y-85182384D02*
X133437500Y-85636512D01*
%TO.C,D1*%
X150487500Y-82067500D02*
X152757500Y-82067500D01*
X150487500Y-78007500D02*
X150487500Y-82067500D01*
X152757500Y-82067500D02*
X152757500Y-78007500D01*
%TO.C,U1*%
X144935000Y-93980000D02*
X144935000Y-90530000D01*
X139815000Y-93980000D02*
X139815000Y-95930000D01*
X144935000Y-93980000D02*
X144935000Y-95930000D01*
X139815000Y-93980000D02*
X139815000Y-92030000D01*
%TO.C,J1*%
X147597500Y-77470000D02*
X137437500Y-77470000D01*
X137437500Y-77470000D02*
X137437500Y-85090000D01*
X147597500Y-83820000D02*
X137437500Y-83820000D01*
X147597500Y-85090000D02*
X147597500Y-77470000D01*
X137437500Y-85090000D02*
X147597500Y-85090000D01*
%TO.C,D2*%
X152292500Y-101330000D02*
X152292500Y-97270000D01*
X150022500Y-97270000D02*
X150022500Y-101330000D01*
X150022500Y-101330000D02*
X152292500Y-101330000D01*
%TO.C,C2*%
X133637500Y-99943752D02*
X133637500Y-99421248D01*
X132167500Y-99943752D02*
X132167500Y-99421248D01*
%TO.C,R1*%
X131967500Y-78335320D02*
X131967500Y-78789448D01*
X133437500Y-78335320D02*
X133437500Y-78789448D01*
%TO.C,C1*%
X133637500Y-94629448D02*
X133637500Y-90544448D01*
X131767500Y-90544448D02*
X131767500Y-94629448D01*
X133637500Y-90544448D02*
X131767500Y-90544448D01*
%TD*%
M02*
